<svg version="1.1" id="Layer_1" xmlns="http://www.w3.org/2000/svg" xmlns:xlink="http://www.w3.org/1999/xlink" x="0px" y="0px" viewBox="0 0 100 100" xml:space="preserve"><desc>Copyright Opto 22</desc> 
<g>
<g id="shape">
	<path fill="#808080" d="M43.433,93.433C19.484,93.433,0,73.949,0,50S19.484,6.567,43.433,6.567H100v33.051H85.606
		c0.837,3.4,1.26,6.884,1.26,10.381C86.866,73.949,67.382,93.433,43.433,93.433z M43.433,9.48C21.09,9.48,2.913,27.657,2.913,50
		S21.09,90.52,43.433,90.52c22.343,0,40.52-18.177,40.52-40.52c0-3.862-0.554-7.707-1.645-11.428l-0.547-1.866h15.326V9.48H43.433z"></path>
</g>
<g id="dark">
	<path fill="#808080" d="M43.433,69.729c-10.878,0-19.728-8.851-19.728-19.729s8.85-19.728,19.728-19.728
		c10.878,0,19.728,8.85,19.728,19.728S54.312,69.729,43.433,69.729z M43.433,32.272c-9.775,0-17.728,7.953-17.728,17.728
		s7.953,17.729,17.728,17.729c9.775,0,17.728-7.953,17.728-17.729S53.208,32.272,43.433,32.272z"></path>
	<path fill="#808080" d="M59.161,9.48H43.433v0.044c17.663,0,32.709,11.376,38.222,27.183h3.167
		C80.807,24.232,71.3,14.208,59.161,9.48z"></path>
</g>
</g>
</svg>