<svg version="1.1" id="Layer_1" xmlns="http://www.w3.org/2000/svg" xmlns:xlink="http://www.w3.org/1999/xlink" x="0px" y="0px" viewBox="0 0 100 100" xml:space="preserve"><desc>Copyright Opto 22</desc> 
<g>
	<g id="frame">
		<rect fill="none" width="100" height="100"></rect>
	</g>
	<g id="shape">
		<path fill="#29ABE2" d="M25,37.5H0v25h25c6.904,0,12.5,5.596,12.5,12.5v25h25V75C62.5,54.289,45.711,37.5,25,37.5z"></path>
	</g>
	<g id="dark">
		<path fill="#00467F" d="M25,37.5H0v1h25c20.126,0,36.5,16.374,36.5,36.5v25h1V75C62.5,54.289,45.711,37.5,25,37.5z"></path>
		<path fill="#00467F" d="M38.5,75c0-7.444-6.056-13.5-13.5-13.5H0v1h25c6.904,0,12.5,5.596,12.5,12.5v25h1V75z"></path>
	</g>
</g>
</svg>