<svg version="1.1" id="Layer_1" xmlns="http://www.w3.org/2000/svg" xmlns:xlink="http://www.w3.org/1999/xlink" x="0px" y="0px" viewBox="0 0 100 100" xml:space="preserve"><desc>Copyright Opto 22</desc> 
<g>
	<g id="frame">
		<rect fill="none" width="100" height="100"></rect>
	</g>
	<g id="shape">
		<path fill="#999" d="M68.8,18.5c0,0.5-0.1,0.9-0.3,1.3L53.4,50l15.1,30.2c0.5,0.9,0.4,2-0.1,2.9c-0.5,0.9-1.5,1.4-2.6,1.4H34.3
			c-1,0-2-0.5-2.6-1.4c-0.5-0.9-0.6-2-0.1-2.9L46.6,50L31.6,19.8c-0.5-0.9-0.4-2,0.1-2.9c0.5-0.9,1.5-1.4,2.6-1.4h31.5
			c1,0,2,0.5,2.6,1.4C68.6,17.4,68.8,18,68.8,18.5z"></path>
	</g>
	<g id="dark">
		<path fill="#4d4d4d" d="M67.8,18.5c0,0.3-0.1,0.6-0.2,0.9L52.2,50l15.3,30.6c0.3,0.6,0.3,1.4-0.1,1.9c-0.4,0.6-1,0.9-1.7,0.9H34.3
			c-0.7,0-1.3-0.4-1.7-0.9c-0.4-0.6-0.4-1.3-0.1-1.9L47.8,50L32.5,19.4c-0.3-0.6-0.3-1.4,0.1-1.9c0.4-0.6,1-0.9,1.7-0.9h31.5
			c0.7,0,1.3,0.4,1.7,0.9C67.6,17.8,67.8,18.1,67.8,18.5z"></path>
	</g>
	<g id="light">
		<path fill="#ccc" d="M66.3,81.5c0,0.1,0,0.2-0.1,0.3c-0.1,0.1-0.3,0.2-0.4,0.2H34.3c-0.2,0-0.3-0.1-0.4-0.2s-0.1-0.3,0-0.5
			l15.8-31.5c0.1-0.2,0.3-0.3,0.4-0.3s0.4,0.1,0.4,0.3l15.8,31.5C66.2,81.3,66.3,81.4,66.3,81.5z"></path>
		<path fill="#ccc" d="M66.3,18.5c0,0.1,0,0.2-0.1,0.2L50.4,50.2c-0.1,0.2-0.3,0.3-0.4,0.3s-0.4-0.1-0.4-0.3L33.8,18.7
			c-0.1-0.2-0.1-0.3,0-0.5c0.1-0.1,0.3-0.2,0.4-0.2h31.5c0.2,0,0.3,0.1,0.4,0.2C66.2,18.3,66.3,18.4,66.3,18.5z"></path>
	</g>
	<g id="hlight">
		<polygon fill="#fff" points="35.1,81 64.9,81 50,51.1 		"></polygon>
		<polygon fill="#fff" points="50,48.9 64.9,19 35.1,19 		"></polygon>
	</g>
</g>
</svg>