<svg version="1.1" id="Layer_1" xmlns="http://www.w3.org/2000/svg" xmlns:xlink="http://www.w3.org/1999/xlink" x="0px" y="0px" viewBox="0 0 100 100" xml:space="preserve"><desc>Copyright Opto 22</desc> 
<g>
	<g id="frame">
		<rect fill="none" width="100" height="100"></rect>
	</g>
	<g id="shape">
	
			<path fill="#999" d="M81.5,68.75c-0.459,0-0.918-0.105-1.342-0.316L50,53.354l-30.158,15.08
				c-0.93,0.463-2.034,0.415-2.919-0.132C16.039,67.755,15.5,66.79,15.5,65.75v-31.5c0-1.04,0.539-2.005,1.423-2.552
				c0.885-0.547,1.988-0.597,2.919-0.131L50,46.646l30.158-15.079c0.93-0.466,2.034-0.417,2.919,0.131
				c0.885,0.546,1.423,1.512,1.423,2.552v31.5c0,1.04-0.538,2.005-1.423,2.552C82.596,68.6,82.049,68.75,81.5,68.75z"></path>
	</g>
	<g id="dark">
		<path fill="#4d4d4d" d="M81.5,67.75c-0.306,0-0.612-0.07-0.895-0.211L50,52.236L19.395,67.539
			c-0.62,0.309-1.357,0.276-1.946-0.088c-0.59-0.364-0.949-1.008-0.949-1.701v-31.5c0-0.693,0.359-1.337,0.949-1.701
			c0.589-0.365,1.326-0.398,1.946-0.088L50,47.764l30.605-15.303c0.619-0.309,1.356-0.276,1.946,0.088
			c0.589,0.364,0.948,1.008,0.948,1.701v31.5c0,0.693-0.359,1.337-0.948,1.701C82.23,67.649,81.865,67.75,81.5,67.75z"></path>
	</g>
	<g id="light">
		<path fill="#ccc" d="M18.5,66.25c-0.091,0-0.183-0.025-0.263-0.074C18.09,66.084,18,65.923,18,65.75v-31.5
			c0-0.173,0.09-0.334,0.237-0.425s0.331-0.099,0.486-0.022l31.5,15.75C50.393,49.638,50.5,49.811,50.5,50s-0.107,0.362-0.276,0.447
			l-31.5,15.75C18.653,66.232,18.577,66.25,18.5,66.25z"></path>
		<path fill="#ccc" d="M81.5,66.25c-0.076,0-0.153-0.018-0.224-0.053l-31.5-15.75C49.607,50.362,49.5,50.189,49.5,50
			s0.107-0.362,0.276-0.447l31.5-15.75c0.154-0.078,0.34-0.069,0.486,0.022C81.91,33.916,82,34.077,82,34.25v31.5
			c0,0.173-0.09,0.334-0.237,0.426C81.683,66.225,81.592,66.25,81.5,66.25z"></path>
	</g>
	<g id="hlight">
		<polygon fill="#fff" points="19,35.059 19,64.941 48.882,50 		"></polygon>
		<polygon fill="#fff" points="51.118,50 81,64.941 81,35.059 		"></polygon>
	</g>
</g>
</svg>