<?xml version="1.0" encoding="UTF-8" standalone="no"?>
<svg
   xmlns:dc="http://purl.org/dc/elements/1.1/"
   xmlns:cc="http://creativecommons.org/ns#"
   xmlns:rdf="http://www.w3.org/1999/02/22-rdf-syntax-ns#"
   xmlns:svg="http://www.w3.org/2000/svg"
   xmlns="http://www.w3.org/2000/svg"
   xmlns:sodipodi="http://sodipodi.sourceforge.net/DTD/sodipodi-0.dtd"
   xmlns:inkscape="http://www.inkscape.org/namespaces/inkscape"
   width="4.9609375mm"
   height="6.2011719mm"
   viewBox="0 0 4.9609375 6.2011719"
   version="1.1"
   id="svg8"
   inkscape:version="1.0.1 (3bc2e813f5, 2020-09-07)"
   sodipodi:docname="Fire1.svg">
  <defs
     id="defs2" />
  <sodipodi:namedview
     id="base"
     pagecolor="#ffffff"
     bordercolor="#666666"
     borderopacity="1.0"
     inkscape:pageopacity="0.0"
     inkscape:pageshadow="2"
     inkscape:zoom="11.313709"
     inkscape:cx="4.4880979"
     inkscape:cy="2.3394522"
     inkscape:document-units="mm"
     inkscape:current-layer="layer1"
     inkscape:document-rotation="0"
     showgrid="false"
     fit-margin-top="0"
     fit-margin-left="0"
     fit-margin-right="0"
     fit-margin-bottom="0"
     inkscape:window-width="1267"
     inkscape:window-height="1198"
     inkscape:window-x="543"
     inkscape:window-y="62"
     inkscape:window-maximized="0" />
  <metadata
     id="metadata5">
    <rdf:RDF>
      <cc:Work
         rdf:about="">
        <dc:format>image/svg+xml</dc:format>
        <dc:type
           rdf:resource="http://purl.org/dc/dcmitype/StillImage" />
        <dc:title></dc:title>
      </cc:Work>
    </rdf:RDF>
  </metadata>
  <g
     inkscape:label="Layer 1"
     inkscape:groupmode="layer"
     id="layer1"
     transform="translate(-74.977476,-174.67175)">
    <g
       style="clip-rule:evenodd;fill-rule:nonzero;image-rendering:optimizeQuality;shape-rendering:geometricPrecision;text-rendering:geometricPrecision"
       id="g847"
       transform="matrix(6.459554e-4,0,0,6.459554e-4,74.150653,174.46504)">
      <path
         id="curve0"
         fill="#ff6347"
         d="m 5120,320 c 1047,711 786,1459 640,2240 -378,2027 2240,2560 1920,0 698,711 1280,2382 1280,3449 0,1767 -1280,3911 -3840,3911 -2560,0 -3840,-2144 -3840,-3911 0,-1067 349,-1778 1047,-2489 -698,1422 315,2524 1048,1778 698,-711 -701,-1423 349,-2845 650,-880 1745,-711 1396,-2133 z m -109,2726 c -1709,1484 825,2844 0,3826 -442,524 -1636,642 -1996,-423 -688,1409 442,2784 2105,2784 1663,0 2444,-1032 2307,-2080 C 7293,8322 5232,8545 4648,7966 6043,8520 7706,6897 6490,5651 5756,4900 4743,4293 5011,3046 Z" />
    </g>
    <path
       style="fill:#ffff00;stroke:#ff0000;stroke-width:0.0601226;stroke-linejoin:round;paint-order:fill markers stroke"
       d="M 8.2808946,21.645903 C 6.679058,21.396558 5.2404287,20.517384 4.4606362,19.31127 3.9969355,18.594058 3.8405615,18.095942 3.8024508,17.214677 3.7704434,16.474544 3.8460251,15.991765 4.0895243,15.380993 L 4.2207286,15.051892 4.407397,15.42502 c 0.2369228,0.473581 0.715327,0.987968 1.1189227,1.203083 1.3459706,0.717394 3.3034758,0.192922 3.8676542,-1.036258 C 9.510901,15.337095 9.5335574,15.214909 9.5293626,14.861698 9.5223241,14.2691 9.3888173,13.886724 8.7332755,12.581634 8.4256514,11.969198 8.0955499,11.265178 7.9997165,11.017145 7.4014171,9.4686429 7.6042587,8.2858669 8.6653751,7.1356686 L 9.010036,6.762073 v 0.7887902 c 0,0.6794534 0.017228,0.8436556 0.1242906,1.1846071 0.317798,1.0120613 0.6633614,1.4669737 2.4987144,3.2894037 1.339392,1.32996 1.54505,1.556308 1.714762,1.887268 0.24986,0.487261 0.354924,0.901766 0.354924,1.400267 0,1.5292 -1.237239,2.955898 -2.995899,3.454659 -0.606367,0.171967 -1.536968,0.172423 -2.0868294,0.001 -0.2145205,-0.06687 -0.4011212,-0.110497 -0.4146681,-0.09695 -0.036819,0.03682 0.4219362,0.340435 0.6843418,0.452915 0.6594828,0.282687 1.7877967,0.38797 2.6845327,0.250492 1.809066,-0.277345 2.971152,-1.062179 3.384546,-2.285809 0.06719,-0.198873 0.07005,-0.179034 0.04582,0.318148 -0.12729,2.612582 -2.38898,4.34335 -5.6404568,4.316382 -0.3405621,-0.0028 -0.8280119,-0.03764 -1.0832216,-0.07736 z"
       id="path849"
       transform="matrix(0.26458333,0,0,0.26458333,74.977476,174.67175)" />
    <path
       style="fill:#ff4500;stroke:#ff0000;stroke-width:0.00751532;stroke-linejoin:round;paint-order:fill markers stroke"
       d="m 9.3826929,18.916893 c -0.1021619,-0.006 -0.281982,-0.02289 -0.3231196,-0.03035 -0.020065,-0.0036 -0.021541,-0.0057 -0.021541,-0.03043 v -0.02653 l 0.028169,0.0042 c 0.1877264,0.02774 0.5207605,0.04173 0.75293,0.03162 0.3985047,-0.01735 0.6678567,-0.0593 0.9719337,-0.151361 0.979686,-0.296619 1.827958,-0.908427 2.34649,-1.692386 0.459996,-0.695458 0.631208,-1.479981 0.490015,-2.245331 -0.04327,-0.234539 -0.118233,-0.460304 -0.23932,-0.720741 -0.155253,-0.333922 -0.278536,-0.493904 -0.782746,-1.015756 l -0.155298,-0.160731 h 0.03646 0.03646 l 0.148672,0.154103 c 0.458241,0.474981 0.578029,0.627657 0.726744,0.926276 0.149367,0.299929 0.240932,0.568322 0.288308,0.845082 0.170173,0.994124 -0.177603,2.008417 -0.963327,2.809552 -0.345403,0.352177 -0.714474,0.621125 -1.16019,0.845447 -0.46287,0.232956 -0.896484,0.372095 -1.332247,0.427495 -0.230875,0.02935 -0.6225874,0.04314 -0.8483962,0.02987 z"
       id="path853"
       transform="matrix(0.26458333,0,0,0.26458333,74.977476,174.67175)" />
    <path
       style="fill:#ff4500;stroke:#ff0000;stroke-width:0.00751532;stroke-linejoin:round;paint-order:fill markers stroke"
       d="m 9.3826929,18.91045 c -0.1058297,-0.007 -0.3019103,-0.02563 -0.3231196,-0.03078 -0.011351,-0.0028 -0.014913,-0.0084 -0.014913,-0.02352 0,-0.01884 0.00115,-0.01969 0.021541,-0.016 0.1330235,0.02409 0.5390962,0.04079 0.7523965,0.03094 0.5081632,-0.02346 0.8186632,-0.08401 1.2459752,-0.242948 0.670679,-0.249464 1.262138,-0.644201 1.726842,-1.152489 0.828724,-0.90645 1.100295,-2.085265 0.722248,-3.135089 -0.03985,-0.110666 -0.104669,-0.259879 -0.164116,-0.377802 C 13.21295,13.6918 13.08419,13.529007 12.64434,13.07116 12.56197,12.98542 12.488901,12.90862 12.481957,12.900486 l -0.01263,-0.01479 h 0.026 c 0.02538,0 0.03004,0.0042 0.195349,0.177302 0.451418,0.472615 0.554583,0.605245 0.702455,0.903078 0.185127,0.372867 0.277049,0.67776 0.313733,1.04061 0.0422,0.417388 -0.0059,0.8406 -0.141529,1.24589 -0.202828,0.605996 -0.589091,1.159587 -1.133722,1.62485 -0.262716,0.224431 -0.532628,0.403304 -0.858338,0.56883 -0.486278,0.247126 -0.958307,0.394964 -1.407567,0.440845 -0.2260725,0.02309 -0.6118649,0.03459 -0.7830182,0.02335 z"
       id="path855"
       transform="matrix(0.26458333,0,0,0.26458333,74.977476,174.67175)" />
    <path
       style="fill:#ff4500;stroke:#ff0000;stroke-width:0.00531413;stroke-linejoin:round;paint-order:fill markers stroke"
       d="m 13.151759,13.551787 c -0.159191,-0.199612 -0.374211,-0.426813 -0.96013,-1.014526 -0.226789,-0.227484 -0.410707,-0.413608 -0.408705,-0.413608 0.0067,0 0.3445,0.316199 0.588692,0.551021 0.336156,0.323258 0.519584,0.518671 0.673846,0.717879 0.0582,0.07515 0.152739,0.207282 0.150161,0.20986 -0.0011,0.0011 -0.02081,-0.02171 -0.04386,-0.05063 z"
       id="path857"
       transform="matrix(0.26458333,0,0,0.26458333,74.977476,174.67175)" />
    <path
       style="fill:#ff4500;stroke:#ff0000;stroke-width:0.00442913;stroke-linejoin:round;paint-order:fill markers stroke"
       d="m 13.020823,17.288747 c 0,-0.001 0.02394,-0.03398 0.0532,-0.07324 0.152108,-0.204114 0.292168,-0.443007 0.391109,-0.667097 0.2197,-0.497595 0.303782,-0.997353 0.25664,-1.525391 -0.01666,-0.186614 -0.05457,-0.378059 -0.111661,-0.56395 -0.01278,-0.04162 -0.02242,-0.07649 -0.02142,-0.07749 0.0042,-0.0042 0.05408,0.164357 0.07851,0.265543 0.055,0.227765 0.07787,0.422247 0.07797,0.663003 7.8e-5,0.182362 -0.01005,0.307451 -0.03877,0.478922 -0.08301,0.495573 -0.300622,0.990903 -0.628338,1.430257 -0.04787,0.06417 -0.05724,0.07554 -0.05724,0.06944 z"
       id="path859"
       transform="matrix(0.26458333,0,0,0.26458333,74.977476,174.67175)" />
    <path
       style="fill:#ff4500;stroke:#ff0000;stroke-width:0.00626374;stroke-linejoin:round;paint-order:fill markers stroke"
       d="m 14.959174,16.97698 c 0.02843,-0.141653 0.03648,-0.185182 0.03963,-0.214189 0.0021,-0.01906 0.0055,-0.03572 0.0076,-0.03702 0.0037,-0.0023 0.01345,0.07955 0.02046,0.171868 l 0.0034,0.04496 -0.01396,-0.0027 c -0.01939,-0.0037 -0.03522,0.0062 -0.04856,0.03032 -0.0087,0.01579 -0.01071,0.01735 -0.0086,0.0067 z"
       id="path863"
       transform="matrix(0.26458333,0,0,0.26458333,74.977476,174.67175)" />
    <path
       style="fill:#ff4500;stroke:#ff0000;stroke-width:0.00442913;stroke-linejoin:round;paint-order:fill markers stroke"
       d="m 3.8369528,17.934414 c -0.053354,-0.243819 -0.082815,-0.464263 -0.095,-0.71084 -0.00578,-0.117014 -0.00248,-0.387337 0.00608,-0.498047 0.010617,-0.137303 0.042639,-0.400241 0.048081,-0.3948 8.799e-4,8.8e-4 -0.00208,0.03558 -0.00658,0.07711 -0.048792,0.450219 -0.024531,1.109251 0.056614,1.537867 0.015299,0.08081 0.00937,0.07353 -0.00919,-0.01129 z"
       id="path865"
       transform="matrix(0.26458333,0,0,0.26458333,74.977476,174.67175)" />
    <path
       style="fill:#ff4500;stroke:#ff0000;stroke-width:0.00442913;stroke-linejoin:round;paint-order:fill markers stroke"
       d="m 4.2586856,15.056158 c -0.014004,-0.02895 -0.020102,-0.03473 -0.036645,-0.03473 -0.00551,0 -0.010022,-8.4e-4 -0.010022,-0.0019 0,-0.0039 0.021263,-0.04501 0.023275,-0.04497 0.00285,5.2e-5 0.040486,0.105472 0.038402,0.107556 -9.024e-4,9.03e-4 -0.00766,-0.01079 -0.015009,-0.02599 z"
       id="path867"
       transform="matrix(0.26458333,0,0,0.26458333,74.977476,174.67175)" />
    <path
       style="fill:#ff4500;stroke:#ff0000;stroke-width:0.00885827;stroke-linejoin:round;paint-order:fill markers stroke"
       d="m 9.0435668,6.8655192 c -6.322e-4,-0.082151 -0.00376,-0.1204402 -0.010169,-0.1243997 -0.00615,-0.0038 0.00226,-0.01564 0.025072,-0.035285 0.01888,-0.016261 0.035777,-0.028115 0.037549,-0.026344 0.00177,0.00177 -0.006,0.05172 -0.017266,0.1109957 -0.011268,0.059276 -0.023589,0.1271104 -0.02738,0.1507432 -0.00569,0.03549 -0.00705,0.022313 -0.00781,-0.075711 z"
       id="path869"
       transform="matrix(0.26458333,0,0,0.26458333,74.977476,174.67175)" />
  </g>
</svg>
