<?xml version="1.0" encoding="UTF-8"?>
<!DOCTYPE svg PUBLIC "-//W3C//DTD SVG 1.1//EN" "http://www.w3.org/Graphics/SVG/1.1/DTD/svg11.dtd">
<svg xmlns="http://www.w3.org/2000/svg" xml:space="preserve" width="30px" height="30px" shape-rendering="geometricPrecision" text-rendering="geometricPrecision" image-rendering="optimizeQuality" fill-rule="nonzero" clip-rule="evenodd" viewBox="0 0 10240 10240" xmlns:xlink="http://www.w3.org/1999/xlink">
	<title>selection_delete icon</title>
	<desc>selection_delete icon from the IconExperience.com O-Collection. Copyright by INCORS GmbH (www.incors.com).</desc>
	<path id="curve1" fill="#223748" d="M3106 3614l508 -508c124,-124 328,-124 452,0l1054 1054 1054 -1054c124,-124 328,-124 452,0l508 508c124,124 124,328 0,452l-1054 1054 1054 1054c124,124 124,328 0,452l-508 508c-124,124 -328,124 -452,0l-1054 -1054 -1054 1054c-124,124 -328,124 -452,0l-508 -508c-124,-124 -124,-328 0,-452l1054 -1054 -1054 -1054c-124,-124 -124,-328 0,-452z"/>
</svg>
